<?xml version="1.0" standalone="no"?>
<!DOCTYPE svg PUBLIC "-//W3C//DTD SVG 1.1//EN" "http://www.w3.org/Graphics/SVG/1.1/DTD/svg11.dtd">
<svg xmlns="http://www.w3.org/2000/svg" xmlns:xlink="http://www.w3.org/1999/xlink" version="1.1" id="Ebene_1" x="0px" y="0px" viewBox="0 0 1149.3 1133.9" style="enable-background:new 0 0 1149.3 1133.9;" xml:space="preserve" width="1149.300048828125" height="1133.9000244140625">
<style type="text/css">
	.st0{fill:#1F548F;}
	.st1{fill:#E1962F;}
</style>
<g>
	<path class="st0" d="M58.8,565.7c11-10.7,22-21.3,32.9-32c18.4-18.1,36.9-36.1,55.2-54.3c14.3-14.1,28.5-28.3,42.6-42.6   c18.6-18.9,36.9-38.2,55.7-57c17.2-17.2,35-33.9,52.2-51.1c11.1-11,21.6-22.5,32.7-33.6c10.3-10.3,20.9-20.4,31.5-30.5   c6.8-6.5,14-12.7,20.6-19.4c6.1-6.2,11.3-13.4,17.4-19.6c8.7-8.9,18.1-17.1,26.9-26c12.7-12.7,24.9-25.8,37.6-38.5   c26-26.2,52.1-52.3,78.3-78.3c9.6-9.5,19.5-18.7,29.1-28.1c2.9-2.9,6.1-2.6,8.5-0.1c9.3,9.5,18.1,19.5,27.3,29.1   c16.4,17,32.9,34,49.7,50.6c16.6,16.4,33.7,32.2,50.4,48.6c11.6,11.4,22.8,23.4,34.3,35c23.9,24.1,47.8,48.2,71.8,72.2   c26.2,26.2,52.4,52.2,78.7,78.4c19.6,19.6,39.2,39.1,58.8,58.7c15.6,15.6,31.1,31.2,46.6,46.7c16.5,16.5,33,33,49.4,49.4   c14.3,14.3,28.6,28.5,43.5,43.4c-10.6,10.4-20.8,20.5-31,30.6c-15.7,15.7-31.3,31.5-47.1,47.1c-17.6,17.4-35.4,34.5-52.8,52   c-22.4,22.4-44.4,45.3-66.8,67.7c-15.5,15.5-31.4,30.5-46.9,46c-12.7,12.7-25,25.7-37.7,38.5c-12.5,12.7-25.2,25.2-37.8,37.8   c-11.9,11.9-23.8,23.7-35.8,35.6c-14.4,14.3-29,28.5-43.4,42.8c-14,14-27.6,28.2-41.6,42.1c-18.6,18.5-37.3,36.8-55.9,55.3   c-5.3,5.3-10.4,10.9-15.6,16.4c-2.7,2.9-5.3,3.2-8.2,0.2c-13.1-13.7-26.2-27.4-39.5-40.9c-12.5-12.6-25.2-25-37.8-37.5   c-7.9-7.8-15.6-15.8-23.6-23.5c-14.4-14.2-29.1-28.1-43.4-42.4c-12.5-12.5-24.4-25.5-36.8-38c-28-28.2-56.1-56.2-84.3-84.3   c-29.9-29.8-59.8-59.6-89.6-89.5c-10.2-10.3-19.8-21.2-30.1-31.4c-26.8-26.6-53.9-53-80.8-79.5C88.9,597,73.9,582,58.8,567   C58.8,566.6,58.8,566.1,58.8,565.7z M1075.8,565.8c-167-167-334.1-334.2-499.9-500c-167.8,167.9-335,335.1-501.5,501.6   c11.7,12.2,24.6,25.8,37.6,39.1c15.1,15.5,30.3,30.9,45.6,46.2c16.9,16.9,34,33.6,50.9,50.5c15.3,15.3,30.3,30.8,45.6,46   c16.8,16.8,33.9,33.3,50.7,50c15.9,15.9,31.7,31.9,47.6,47.8c9.4,9.4,18.9,18.6,28.2,28c9.2,9.2,18.4,18.5,27.6,27.8   c9,9.1,17.9,18.2,27,27.3c8.7,8.7,17.6,17.3,26.3,26.1c8.1,8.1,17.3,14.8,24.5,23.9c7.5,9.5,16.6,17.8,25.2,26.4   c8.8,8.8,17.8,17.2,26.7,26c8.4,8.3,16.8,16.7,25.1,25.1c3.7,3.8,7.2,7.8,11,12c25-25,49.3-49,73.3-73.3   c23.5-23.9,46.5-48.3,70.2-72.1c23.6-23.8,47.9-46.9,71.7-70.5c24-23.8,47.9-47.8,71.7-71.8c23.5-23.7,46.8-47.8,70.4-71.4   c23.8-23.8,48.3-46.9,72.1-70.7C1027.6,615.3,1051.5,590.6,1075.8,565.8z"/>
	<path class="st0" d="M721.5,495.6c6.3-7,12.9-13.7,18.8-21c2.9-3.5,4.5-8,6.9-12.1c1-1.7,2.3-3.3,3.5-4.9c0.8,0.5,1.7,1,2.5,1.5   c-4.1,7.2-8.1,14.5-12.3,21.7c-3.3,5.7-7.1,11.1-9.9,16.9c-0.9,1.9,0.4,5,0.7,7.5c0.2,1.6,0.4,3.2,0.6,4.7c-0.6,3.3-1.1,6.7-1.7,10   c0,0,0.2-0.1,0.2-0.1c-0.3,0.3-0.6,0.6-0.9,0.9c-4.6,5.1-11.2,9.3-7.1,17.9c-2.7,4.3-1.8,10.9-8.7,12.9c-1.1,0.3-0.7,6.1,0.3,10.3   c1.8-1.8,4-3.4,5.4-5.5c9.9-14.4,19.6-28.9,29.6-43.2c1.2-1.7,3.8-2.3,5.8-3.4c0.7,0.7,1.4,1.4,2,2.1c-5.1,7.7-10.2,15.4-15.3,23.2   c0.3,0.3,0.6,0.6,1,0.9c3.2-3.7,6.5-7.3,9.7-11c0.5,0.4,1.1,0.8,1.6,1.1c-5,8.2-9.8,16.4-15,24.5c-4.8,7.5-10,14.6-14.7,22.1   c-12,19.6-23.8,39.3-35.8,58.9c-2.5,4-5.9,7.4-8.6,11.2c-2.1,3-3.8,6.2-5.7,9.3c-6.6,11.1-13.8,22-19.8,33.5   c-5.4,10.3-13.1,18.9-19.5,28.5c-8.2,12.2-16.8,24.1-25.4,36.1c-1.5,2-3.3,4.1-5.4,5.4c-8.3,5.3-13.4,14.6-23.7,17.8   c-4.9,1.5-8.4,6.9-12.9,10.1c-12.6,9-25.3,17.8-38,26.7c-7,4.9-13.8,7.3-22.5,2.9c-4.5-2.2-10.5-1.1-15.6-2.4   c-14.4-3.6-23.6-14.1-32.4-25c-9.5-11.7-12.6-25.5-12.2-40.4c0.2-7.1-1.1-14.2-1.1-21.3c0-6.9,0.8-13.8,1.2-20.6   c0-1.5,0.1-3,0.1-4.6c0-1,0-2,0.1-3.1c1.8-4.5,3.4-9.1,5.4-13.6c0.8-1.8,2.5-3.3,3.8-4.9c0.9,1.4,2.6,2.8,2.7,4.3   c1.1,9.3,1.8,18.7,2.9,28.1c0.4,3.5,1.8,7,2.7,10.5c0,7.1,0.1,14.2,0.1,21.2c4.1,6.3,7.4,13.4,12.5,18.8c4.5,4.6,11,7.2,16.6,10.7   c6.5,5.6,12.5,6.2,17.9,2.1c4.3-3.2,9-6.1,13.2-9.4c1.8-1.4,2.7-3.8,4.1-5.8c0.9-1.3,1.7-2.8,2.8-4c9-9.5,18-19,27-28.5   c7.9-10.1,15.8-20.2,23.8-30.3c2-2.6,4.3-5,6.4-7.5c1.2-1.3,2.5-2.5,3.6-3.9c5.8-7.6,11.4-15.3,17.3-22.9   c3.4-4.4,7.3-8.3,10.6-12.8c7.7-10.8,15-21.9,22.7-32.7c6.6-9.2,13.8-18,20.1-27.4c5.2-7.8,9-16.5,14.2-24.3   c7-10.6,15.1-20.4,21.9-31.1C707.4,520.5,714.3,507.9,721.5,495.6z M654.1,614c2.3-3.2,4.6-6.5,6.8-9.7c-0.5-0.3-1-0.6-1.5-0.8   C657.7,607,655.9,610.6,654.1,614c-0.8,1.5-1.6,2.8-2.5,4.2c-9.8,13.2-19.6,26.4-29.4,39.6c-5.4,5.6-11.5,10.8-13.8,18.4   c0.8,0.5,1.5,1.1,2.3,1.6c5-6.8,10-13.6,15-20.5c8.6-13.1,17.2-26.1,25.8-39.2C652.4,616.8,653.2,615.4,654.1,614z M535.9,771.4   c6-3.9,12.9-7,17.9-11.9c14.9-15,28.9-31,43.7-46.1c14-14.3,29.4-27.2,43.5-41.4c3.8-2.3,10.3-4.1,10.9-7.1   c1.3-6.1,5.5-8.5,9.2-12.1c1.8-1.8,2.6-4.7,3.8-7.2c0.9-2,1.3-4.2,2.5-6c13.7-21.4,27.4-42.8,41.2-64.2c0.9-1.5,2.3-2.8,2.9-4.4   c0.9-2.2,1.4-4.7,2-7c-0.7-0.3-1.3-0.5-2-0.8c-1.6,1.4-3.5,2.7-4.8,4.3c-5.3,6.6-10.6,13.3-15.7,20.1c-1.4,1.9-2.5,4.1-3.7,6.2   c-1.7,3.2-3.7,6.4-5,9.8c-3.6,9.6-11.8,15.7-17.6,23.7c-2.8,3.8-5.9,7.4-8.9,11.1c-2.3,1.1-5.4,1.6-6.7,3.4   c-4.7,6.2-8.5,13.2-13.2,19.4c-13.2,17.1-26.6,33.9-40.1,50.7c-2.6,3.3-6.1,5.9-9.5,8.5c-3,2.3-7.1,3.4-9.6,6   c-11.4,11.9-20.2,26.2-33.5,36.4c-2.9,2.2-4.7,5.9-7.1,8.9c-3.2,1.6-6.6,3.1-9.7,5c-6.2,3.6-12.1,7.8-18.6,10.9   c-1.7,0.8-5.1-0.7-7.1-2.1c-0.9-0.7-0.2-3.6-0.2-6.3c-16-4.5-35.7-4.9-44.9-25c-0.8,2-1.1,3.6-0.7,5c4.2,17,15.1,29.3,29.3,38.6   c3.7,2.4,10.7,3.9,14.1,2c11.8-6.3,22.9-14.2,34-21.8C534,776.5,534.7,773.5,535.9,771.4z M540.4,785.9c12.2-2.3,53-41.1,54.1-51.1   C576.5,751.8,558.9,768.4,540.4,785.9z M689.8,566.9c-0.7-0.3-1.5-0.7-2.2-1c-3.4,3.5-8.1,6.3-5.4,12.9   C684.7,574.8,687.2,570.9,689.8,566.9z M624,701.6c-0.7-0.5-1.4-1.1-2-1.6c-3.9,5.2-7.7,10.3-11.6,15.5c0.4,0.3,0.9,0.6,1.3,1   C615.7,711.5,619.8,706.6,624,701.6z"/>
	<path class="st0" d="M671.8,354.6c-2.3-5-6.1-6.6-11.6-6.8c-11-0.3-21.9-2-32.9-2.3c-4.8-0.1-10,1-14.3,3   c-11.2,5.3-22.8,10.3-32.8,17.5c-18.4,13.1-35.4,28.2-48.6,46.9c-3,4.2-5.3,9-8.5,13c-2.5,3.1-6,5.3-8.9,7.9   c-2.1-6.5-4.6-13.2-6.3-20c-0.6-2.3,0.5-5.1,0.9-7.7c1.3-2,2.8-3.9,4-5.9c4.3-6.9,7.4-14.8,12.9-20.5c14.7-15.4,32-27.1,52.1-35   c24.1-9.4,48.7-15.6,74.8-14.4c3.7,0.6,7.3,1.1,11,1.7c3.6,3.6,7.1,7.3,11.8,12c-0.6-11.3-5.3-17.3-12.9-18.5   c-5.4-5.6-12.8-7.9-19.6-6.7c-15.1,2.5-30,6.8-45,10.3c-0.5,0.4-1,1-1.6,1.1c-21.1,4.2-39.4,13.7-54.8,28.9   c-3.1,3.1-7.3,5.1-11,7.6c0-1.7,0-3.4,0.1-5.2c5.6-5.8,10.6-12.2,16.9-17.1c8-6.1,16.4-12.3,25.6-16c14.5-5.9,29.7-10.1,44.8-14.4   c8.8-2.5,17.9-3.6,26.9-5.3c1,0.1,2,0.2,2.9,0.3c1.5-0.4,3-0.9,4.6-1.3c13.6,5.6,27.8,10.3,37.5,22.5c2.8,3.6,5.3,7.4,7.9,11.2   c-0.1,1.7-0.6,3.5-0.3,5.2c0.3,1.9,1.2,3.7,1.8,5.5c-3.1,15.2-5.9,30.5-9.3,45.6c-3.4,15-7.5,29.8-11.4,44.7   c-0.6,2.2-1.5,5.1-5.5,3.1c-1.5-0.7-5.6,0.6-6.3,2c-3.5,7.6-6.4,15.6-9.4,23.4c-1.5,3.9-2.7,7.9-4.3,11.8c-0.5,1.1-2.6,2.5-3.4,2.2   c-1.3-0.5-2.9-2.2-3-3.5c-0.2-2.3,0.5-4.7,1.1-7c2.7-10.6,5.5-21.2,8.2-31.8c0.1-0.5-0.4-1.2-0.6-1.8c2.4-6.2,3.5-12.6,8.3-18.2   c5-6,7.3-14.1,10.8-21.4c1.2-2.5,3.4-4.9,3.5-7.5c0.3-10-0.3-20,0-30C677.5,359.1,676.3,356.1,671.8,354.6z"/>
	<path class="st1" d="M721.5,495.6c-7.3,12.3-14.2,24.9-21.9,36.9c-6.9,10.6-14.9,20.5-21.9,31.1c-5.2,7.8-9,16.5-14.2,24.3   c-6.3,9.4-13.5,18.2-20.1,27.4c-7.7,10.8-15,21.9-22.7,32.7c-3.2,4.5-7.2,8.4-10.6,12.8c-5.9,7.6-11.5,15.3-17.3,22.9   c-1.1,1.4-2.4,2.6-3.6,3.9c-9.2,2.4-18,5.9-22.8,14.4c-10.1,17.9-25.7,30-41.5,42c-6.4,4.8-13,9.3-19.8,13.4   c-2.6,1.5-6.9,2.8-7.5-2.7c-0.2-1.6,0.2-4.2,1.3-5c4.3-3.1,9-5.5,13.4-8.3c6.4-4.1,12.3-7.9,16.6-15.3c5.2-8.8,14.7-14.9,21.5-22.9   c8.6-10,16.1-20.9,24.5-31c5.2-6.3,11.2-11.9,16.5-18c2.2-2.6,3.2-6.2,5.3-8.8c8.1-10.2,16.7-20.1,24.6-30.4   c6.8-8.9,13-18.2,19.2-27.4c5.8-8.6,11.1-17.4,16.9-26c3.6-5.3,7.8-10.3,11.7-15.5c4.4-5.9,8.8-11.8,13.3-17.7c1-0.3,2.5-0.3,3-1   c4.7-5.9,14.3-7.5,14.8-17.1c0.1-1.3,2.4-2.5,3.4-3.9c3.2-4.3,6.2-8.7,9.3-13.1c1.6-2.2,3-4.5,4.5-6.8   C718.9,489.4,720.2,492.5,721.5,495.6z M600.8,651.6c0.6,0.4,1.3,0.8,1.9,1.2c8.5-6.4,31.7-39.2,31.8-45.5   C623.1,622.4,611.9,637,600.8,651.6z M669.8,557.9c0.9,0.7,1.9,1.4,2.8,2.1c2.2-3.8,4.5-7.5,6.7-11.3c-0.6-0.4-1.2-0.8-1.8-1.3   C674.9,550.9,672.4,554.4,669.8,557.9z"/>
	<path class="st0" d="M717.6,486.4c-1.5,2.3-3,4.6-4.5,6.8c-3.1,4.4-6.1,8.8-9.3,13.1c-1,1.4-3.4,2.5-3.4,3.9   c-0.5,9.7-10.1,11.3-14.8,17.1c-0.6,0.7-2,0.7-3,1c-4.2-3-2.8-6.2,0-9c4.7-4.7,4.7-8.8-0.8-12.7c2.5-4.2,5.1-8.4,7.3-12.8   c1.9-3.8,3.3-7.8,4.9-11.6c0.4-1,1.4-1.8,1.7-2.8c3.7-13.3,7.3-26.6,10.9-39.9c4-5.6,4-12.1,4.2-18.6c0.5-17.1,1.5-34.2,2.3-51.3   c2.1-7.2-2.8-11-7.5-14.6c-4.8-3.7-6.3-7.3-1.4-11.9c6.3,0.9,10.2,4.8,13.2,10c1.8,1.5,3.5,3,5.3,4.5c0.9,7.1,1.8,14.3,2.6,21.4   c-1.4,2.7-4.1,5.4-4.1,8.2c-0.1,10.3,1.4,20.4-1.9,30.7c-1.5,4.7-0.3,10.3-0.3,15.5c0.8,0.1,1.7,0.2,2.5,0.3   c0.8-2.1,1.7-4.1,2.3-6.2c1.8-6.4,3-13.1,5.2-19.3c2.8-7.9,5.2-15.6,1.7-23.9c-0.2-11,0-22-0.8-32.9c-0.3-4.6-2.7-9-4.2-13.9   c3.9-1.2,5.6,2.7,6.3,6.2c1.4,6.6,2.7,13.4,2.7,20.1c0.1,11.6,2,22.5,7.6,32.9c5.5,10.1,1.5,20.3-2.3,30.1   c-0.9,2.4-1.5,4.9-2.5,7.2c-1.6,3.9-3.8,7.6-5.1,11.6c-1.3,4.2-1.9,8.8-2.8,13.1c-1.8,4.3-3.6,8.6-5.4,12.9   C722.1,476.4,719.9,481.4,717.6,486.4z M718.9,440.8c0.3,0.1,0.6,0.1,0.9,0.2c0.2-1.7,0.5-3.5,0.7-5.2c-0.2,0-0.4,0.1-1.1,0.2   C719.2,437.4,719.1,439.1,718.9,440.8z"/>
	<path class="st0" d="M529.4,583c6.6-2.5,13.2-5,19.8-7.3c1.8-0.6,3.8-0.7,8.3-1.5c-1.7,4-2.3,6.7-3.8,8.7c-2.6,3.5-5.9,6.6-8.7,10   c-9.3,11.2-24.2,12.2-35.6,19.7c-3.1,2-6.5,3.5-9.2,6.7c2.1-0.9,4.1-1.9,6.2-2.6c7.7-2.4,15.7-4,23.2-7.1c5.3-2.2,9.7-6.6,14.8-9.5   c5.8-3.3,12-6,19.5-9.6c-0.7,3.7-1,5.1-1.3,6.5c-4.8,3.9-9.6,7.9-14.4,11.8c-9.6,4.4-19.7,8-28.7,13.4c-15.4,9.1-32,14.8-48.8,20.2   c-3.9,1.3-8.5,0.2-12.8,0.1c-4.3-6.6-10.5-3.1-16.1-2.9c0,0,0.1,0.1,0.1,0.1c-0.5-11.4-5.4-15.9-16.2-14.6   c-5.1-1.6-8.5-4.4-5.7-11.9c6.1,0.9,12.7,2,19.3,2.9c1.1,0.2,2.4-0.5,3.6-0.7c2.6,0.9,5.2,2.4,7.9,2.6c17.6,1.1,32.2-6.8,46.8-15.3   c4.6-2.7,10.1-4,15.1-6.1c4.3-1.8,10.7,0,12-7c-0.4-1-0.7-2.1-1.1-3.1C525.5,585.3,527.4,584.2,529.4,583z"/>
	<path class="st0" d="M573.4,514.2c-0.8-3.5-1.6-7-2.4-10.5c1.7-0.7,3.5-1.4,5.5-2.2c-2.1-5.1-3.9-9.6-10-9.9   c-2.5-1.3-5.1-2.6-7.6-3.9c-2.5-3.2-5-6.6-11.7-2.5c4.9,3,8.7,5.4,12.5,7.8c5.4,11.9,10,23.9,5.5,36.6   c-5.1-5.6-10.4-11.6-15.7-17.5c-5.9-8.9-16.2-10.3-24.7-14.8c-6.2-4.1-4.3-9.7-2.9-15.2c2.3-1.3,4.6-2.5,6.8-3.9   c1.9-1.2,3.5-2.8,5.3-4.2c12.8-5.9,24,0,35.3,6.5c2.8,1.6,7,0.8,10.6,1.1c4.1,12.1,8.7,24.1,12.2,36.4c1.3,4.5,0.5,9.8,0.1,14.6   c-0.7,7.7,4.1,15.3,0.4,23c-0.7,1.4-1.3,2.8-1.6,4.2c-1.8,10-8.3,13.3-18.3,8.1c2.7-3.9,8.6-7.6,3-13.1c0.5-1.2,1.5-2.4,1.5-3.6   c0.2-10,0.6-20,0.2-30C577.5,518.9,574.9,516.5,573.4,514.2z"/>
	<path class="st0" d="M483.9,518.4c4.5-4.9,9.1-9.8,13.5-14.8c1.8-2.1,3-4.6,4.7-7.1c4.8,3.8,4.3,7.9,1.9,11.5   c-6.4,9.7-13.3,19.1-19.9,28.8c-0.4,0.7,0.4,2.2,0.6,3.3c2.7,0.9,5.4,1.8,8.1,2.7c-2.5,3.7-5.1,7.3-8.3,12c1,3.2,3.6,2.5,6.5-0.1   c2.2-1.9,4-4.2,6.3-5.9c1.2-0.9,2.9-1,4.4-1.4c0.1,1.8,0.9,4.3,0.1,5.4c-3.4,4.3-7.4,8-11,12.1c-2.5,2.8-4.1,6.5-7,8.7   c-10,7.8-21.2,13.4-33.6,16.1c-1.8,0.4-4.9-1.3-6.1-2.9c-3.4-4.8-6-10.1-9.2-15c-3.4-5.3-1.9-10,1.4-14.6c0.3-0.5,0.2-1.3,0.2-2   c2.2-0.2,5,0.3,6.5-0.8c7.8-6.1,15.2-12.6,22.8-19c4.4-3.7,8.8-7.3,13.1-11.1C480.8,522.6,482.3,520.4,483.9,518.4z"/>
	<path class="st0" d="M220.8,581.2c9,9.7,21.6,16.4,26.5,30.8c3.4,9.9-2.8,16.9-12.6,18.2c-2.8,0.4-5.8,0.1-9.2,0.1   c0,2.5-0.6,5,0.1,7c4.5,13.6-3.3,23.1-17.4,22.9c-10.3-0.1-16.3-5.9-22.6-12c-6.9-6.8-13.4-14-21.6-22.6c2.8,0.7,4.3,1.4,5.7,1.4   c2.8,0.1,6.7,1,8.2-0.5c11.6-11.2,22.9-22.8,34.1-34.4C214.9,589.1,217.2,585.7,220.8,581.2z M207,617.9c-1,0.5-2,0.8-2.5,1.3   c-3.9,3.8-7.7,7.9-11.7,11.6c-9.6,9-9.1,13.9,2.8,19.4c2.6,1.2,6.9-0.3,10.1-1.5c8.7-3.1,12.8-13,8.7-21.1   C212.6,624.1,209.6,621.2,207,617.9z M229.2,595.1c-3,2.5-5.7,4.8-8.4,7.1c-2.7,2.3-5.8,4.4-7.9,7.2c-1.2,1.6-1.8,4.9-0.9,6.5   c4,7.5,15.7,7.9,21.6,2.1C239.7,611.9,239.1,603.3,229.2,595.1z"/>
	<path class="st0" d="M813.7,797.8c-3.1-4.8-5.1-9.4-8.4-12.8c-8.6-8.9-18.2-16.7-26.4-25.9c-4.2-4.8-7.4-10-15.7-11   c6.8-7.2,13.4-13.3,19-20.1c4.9-6,11-8.2,18.2-9.1c10.1-1.3,14.4,10,12.8,17.1c-0.7,3.1-1.2,6.2-2,10.4c2.4-1.1,3.7-1.4,4.8-2.1   c9.4-6.1,15.6-4.1,21.4,0.1c7.3,5.3,7,13.1,5.8,21c-1.1,7.5-5.4,12.6-11.5,16.8c-3.4,2.4-6.2,5.7-9.4,8.5   C819.2,793.4,815.9,796,813.7,797.8z M800.5,761.1c6.8,6.7,13,13,19.6,19c1.3,1.2,4.8,1.6,6.2,0.7c7.8-5,10.1-13.8,5.9-20.2   c-6.3-9.6-12.2-12.7-22.7-7.1C806.2,755.3,803.7,758.3,800.5,761.1z M805.9,744.2c0.1-8-2.6-11.9-10.1-14   c-5.6-1.6-10.5,0.4-13.2,5.3c-1.2,2.2-1.1,6.2,0.1,8.6c1.3,2.6,4.3,4.4,6.9,6.1c2.8,1.9,6.4,5,8.9,4.4   C803.1,753.4,806.9,749.8,805.9,744.2z"/>
	<path class="st1" d="M524.6,589.5c-1.2,7-7.7,5.2-12,7c-5,2.2-10.4,3.4-15.1,6.1c-14.6,8.5-29.2,16.4-46.8,15.3   c-2.7-0.2-5.3-1.7-7.9-2.6c-0.7-2.4-1.4-4.7-2.2-7.1c0.6-0.8,1.2-1.7,1.8-2.5c-4-0.7-8.1-1.5-12.1-2.2c-4.7-0.9-10.6,0.1-11.5-7.7   c10-1.5,19.5-2.4,29.2,1c8.1,2.8,15.8,0.2,23.5-3.3c5.5-2.5,11.6-3.6,17.3-5.6c2-0.7,3.9-2.1,5.6-3.6c4.6-4.2,9.6-7.1,15.8-9   c5.5-1.7,10.2-6.1,15.5-8.6c9.4-4.4,19.1-8.2,28.6-12.3c0,1.5-0.1,3.1-0.1,4.6c-8.3,8-16.6,16-24.9,24c-2,1.1-3.9,2.2-5.9,3.4   c-5.3-1.9-18.8,4.1-21.6,9.5C509.5,593.8,517.1,591.6,524.6,589.5z"/>
	<path class="st0" d="M582.2,928.2c7.4-7.3,14.7-14.5,22.1-21.8c0.7,0.2,1.5,0.3,2.2,0.5c-7.2,9.5,0,13.9,5.3,19.1   c3.6,3.5,7,7.3,11.7,12.3c-0.6-13.6-1-25.6-2-37.6c-0.1-1.3-4.1-2.3-6.9-3.8c0.3-2.7,5.1-6.9,12.8-8.9c0,9.9,0,19.6,0,29.3   c0,9.8,0,9.4,9.7,10c10.3,0.7,20.6,2.6,30.9,3.4c4.6,0.4,9.3-0.5,14.5-0.9c-7.1,13.2-16.6,16.7-32.1,13.2   c-8.3-1.9-16.7-2.8-25.1-4.2c-0.3,0.7-0.7,1.4-1,2.1c8.6,6.7,17.3,13.3,26.6,20.5c-5.1,5.4-11.2,11.8-17.9,18.9   c-0.3-1.9-1-3.2-0.6-3.6c5.1-5.2,1.9-8.9-2-12.8c-10.9-10.7-21.7-21.6-32.5-32.4c-3.3-3.2-6.7-6-11.5-2.1c-0.6,0.5-2.1,0.1-3.1,0.1   C582.8,929.2,582.5,928.7,582.2,928.2z"/>
	<path class="st0" d="M502.4,452.4c3.5,1.1,7.1,1.8,10.3,3.3c1.4,0.6,2.6,2.8,2.8,4.4c0.1,0.9-2.1,2.6-3.4,2.8   c-2.9,0.6-4,1.9-3.3,4.7c0.5,1.9,1.5,3.7,1.8,5.6c0.9,6.9-0.4,7.4-7.1,5.8c-11-2.6-21.6,0-31,5.9c-7.5,4.7-14.5,10.1-21.5,15.6   c-3.8,3-5.6,2.6-7.9-1.9c-3.1-6-3-11.7-1.3-17.8c1.7-1.6,3.5-3,5-4.8c3-3.4,5.3-7.5,8.7-10.4c10.4-8.8,22.6-13.2,36.3-12.9   C495.2,452.8,498.8,452.5,502.4,452.4z"/>
	<path class="st1" d="M706.5,439.4c-3.6,13.3-7.2,26.6-10.9,39.9c-0.3,1-1.2,1.8-1.7,2.8c-1.7,3.9-3,7.9-4.9,11.6   c-2.2,4.4-4.9,8.5-7.3,12.8c-1.9,1.5-3.8,2.9-5.9,4.6c-5.3-1.2-5.2-4.7-2.1-8.5c2.7-3.2,4.4-5.7,1.1-9.7c-0.9-1.1-0.2-4.1,0.6-6   c3-7.2,6.6-14.1,9.5-21.3c4.1-10.4,8.4-20.7,11.6-31.4c2.3-8,3.4-16.4,4.2-24.7c1.3-13,2.6-26.1,2.7-39.1c0-6.1-2.9-12.3-4.5-18.4   c-0.6-1.8-1.5-3.6-1.8-5.5c-0.2-1.7,0.2-3.5,0.3-5.2c2.2,0.6,4.4,1.2,6.6,1.7c-4.9,4.6-3.4,8.2,1.4,11.9c4.7,3.6,9.6,7.4,7.5,14.6   c-1.1,6-2.5,12-3.2,18.1c-1.1,9.5-1.9,19-2.5,28.5C706.7,423.8,706.7,431.7,706.5,439.4z"/>
	<path class="st0" d="M511.9,690.6c1-0.3,2.5-0.4,3-1.1c5.4-8.1,10.5-16.5,16.1-24.5c5.9-8.5,13.1-16.3,18.3-25.2   c8.3-14.4,21.8-23.2,34.1-33.3c3.6-2.9,8.7-4,13.9-4.8c-42,38.6-75.7,81.9-88.7,138.4c-7.5-0.5-8.2-1.6-7-8.2   c1.3-6.9,2.1-13.9,3.1-20.8C507.1,704.3,509.5,697.4,511.9,690.6z"/>
	<path class="st0" d="M869.5,676.8c0.4-5.8,7.6-15.6,11.1-15.4c2.4,0.2,5,2.2,7,4c7.4,6.5,14.3,13.6,21.9,19.8   c4,3.3,8.4,1.6,10.7-2.8c2.1-3.9,3.2-8.2-1.3-11.9c-5-4.1-9.8-8.6-14.7-12.8c-3-2.6-6-5-10-8.3c2.6-3.9,5.6-8.3,9.7-14.4   c9.4,10,18.3,19,26.8,28.5c3.2,3.6,5.7,6.6,10.4,0.4c0.4,0.7,0.8,1.4,1.2,2.1c-2.5,4.9-4.5,10.1-7.6,14.6c-0.9,1.3-4.8,0.4-8.1,0.6   c-1.9,3.8-3.7,9.3-7,13.6c-5.6,7.3-12.7,7.3-19.3,0.8c-5.1-5-10.3-9.9-15-15.3C880.9,675.4,876.5,672.6,869.5,676.8z"/>
	<path class="st0" d="M368.2,720.5c-13.2,13.8-25,26.1-38.2,39.9c8.9,0,16.1,0.3,23.2-0.3c1.1-0.1,1.9-4.1,3.2-7.5   c3.7,3.9,7.3,7.8,11,11.8c-0.3,0.6-0.6,1.3-0.9,1.9c-6.2-0.6-12.5-1.1-18.7-1.7c-4.6-0.5-6.8,0.4-6.7,6.1   c0.1,6.3-1.8,12.6-2.4,18.9c-0.3,3.2,0.3,6.4,0.5,9.6c-9.6-3.9-13.4-11.3-11.3-21.1c1.1-5.2,1.5-10.6,2.5-17.6   c-5.2,4.6-9.3,7.5-12.5,11.3c-1,1.1,0.7,4.5,1.6,9.2c-6.6-6.6-12.2-12.2-17.8-17.7c0.1-0.5,0.3-1.1,0.4-1.6   c6.2,3.5,9.4-0.2,13.1-4.1c10.5-11,21.5-21.5,32.1-32.4c2.8-2.9,5.1-6.3,8.2-10.2C359.1,716.6,363.2,718.4,368.2,720.5z"/>
	<path class="st1" d="M511.9,690.6c-2.4,6.8-4.8,13.7-7.2,20.5c-6.8,0.3-5.7-4.8-5-8.3c1.8-9.7,3.5-19.4,6.7-28.7   c2.2-6.3,6.7-11.8,10.3-17.5c5.7-8.9,11.3-17.9,17.4-26.6c2.9-4.1,7.1-7.2,10-11.3c2-2.9,2.7-6.6,3.9-10c4.8-3.9,9.6-7.9,14.4-11.8   c4.4-3.2,9.4-5.8,13.1-9.6c4.3-4.4,8.8-5.4,15.3-3.6c-2.1,2-3.6,3.8-5.4,5.1c-16.4,12.2-30.3,26.5-40.7,44.4   c-5.6,9.8-13.7,18.1-19.4,27.8C520,670.4,516.4,680.7,511.9,690.6z"/>
	<path class="st0" d="M670.6,899.3c-6.8-4.7-8.5-8.3-6.1-13.6c2.6-5.9,3.8-12.5,7.1-17.9c4.1-6.8,14.3-7.3,20-2   c5.8,5.4,11.2,11.1,17.4,15.9c2.9,2.3,7.3,2.8,12.3,4.5c1.4,3.9-0.8,9-5.2,12.1c-2.3,1.6-6.5,0.6-9.8,0.8   c-1.4,4.1-3.4,9.1-4.9,14.2c-1.8,5.7-6.6,8-11.2,6.9c-5-1.1-11.1-3.8-9.2-11.3c1.8-7,3.5-14,6.3-20.6c2.1-5,2.3-9.1-2.6-11.4   c-3.3-1.5-8.7-2.7-11.1-1c-3.4,2.4-5.2,7-2,12.3C673,890.4,671.2,894.5,670.6,899.3z M691.1,885.4c-1.2,4.8-2.8,9.3-3.2,14   c-0.4,4.6,2.3,7.5,7.1,7.7c4.8,0.2,6.5-3.2,7.3-7.1C703.4,894.8,699.4,889.4,691.1,885.4z"/>
	<path class="st0" d="M252.9,706.2c2.1,1.8,3.6,3.1,5.3,4.7c-10.7,3-16.7-1.6-16.2-11.2c0.1-1.1-2.8-2.6-4.4-3.6   c-4.2-2.5-9.8-4-12.3-7.6c-2.2-3.2-2.5-9.6-0.7-13.2c2.3-4.6,8.4-4.5,13.2-3.2c6.1,1.7,12.4,3.6,17.9,6.6c5.9,3.2,7.1-1.9,9.4-4.3   c3.2-3.4,2.7-7.5-0.5-10.8c-2.6-2.7-5.3-4.8-9.8-2.5c-2.9,1.5-6.8,1-10.3,1c-0.5,0-1.5-3.5-1.4-3.6c3.2-1.5,6.7-4.2,9.7-3.8   c6.1,0.9,12.6,2.4,17.8,5.6c9.5,5.9,10.2,16.4,2.4,25.1c-4.9,5.5-10.4,10.5-15.5,15.8C256,702.7,254.6,704.4,252.9,706.2z    M257.2,683.6c-3.8-2-5.9-3.8-8.4-4.3c-4.7-1-10-2.4-13.2,2.4c-1,1.6-0.1,5.8,1.5,7.5c4.2,4.5,9.1,3.2,13.6-0.1   C252.7,687.7,254.6,685.8,257.2,683.6z"/>
	<path class="st0" d="M893.4,714.7c2.1,8.4-1.8,11.7-14.3,10.7c-0.4,7-2,13.6-8.2,18c-3.7,2.7-7.2,4.4-11.8,2   c-5.3-2.8-7.6-6.9-5.8-12.5c2.6-7.9,5.7-15.7,9-24.8c-2.4-1.6-5.5-3.3-8.3-5.4c-4.8-3.5-7.8,0.2-9.7,3.3c-1.3,2-0.3,5.5-0.1,8.3   c0.1,2,1.2,4.1,0.8,6c-0.4,1.6-2.3,4-3.5,3.9c-1.5-0.1-3.7-1.9-4.3-3.4c-3.5-8.3,5.8-27.9,14.3-30.9c5.8-2,12.6,1.1,18.5,7.7   c4.7,5.3,9.8,10.3,15.1,14.9C887,714.1,890.3,714,893.4,714.7z M867.3,712c-0.7,0.2-1.5,0.5-2.2,0.7c-1.5,2.9-3.8,5.7-4.4,8.8   c-0.6,3-0.2,6.8,1.2,9.5c1.3,2.4,3.6,5.3,8.1,2.9c4.4-2.3,5.4-5.8,4.2-9.3C872.7,720.2,869.7,716.2,867.3,712z"/>
	<path class="st1" d="M671.8,354.6c4.5,1.5,5.7,4.5,5.5,9.1c-0.3,10,0.3,20,0,30c-0.1,2.5-2.3,5-3.5,7.5   c-3.5,7.2-5.8,15.4-10.8,21.4c-4.7,5.7-5.9,12-8.3,18.2c-2.9,7.8-5.7,15.6-8.7,23.3c-1.1,2.8-3,5.3-4.5,8c-1-0.2-2.1-0.4-3.1-0.6   c0-3.8-1.6-8.9,0.2-11.3c5.6-7.2,4.5-15.9,7.1-23.6c2.9-8.8,5.3-17.8,8.8-26.3c2.6-6.4,6.1-12.6,9.9-18.4   c4.9-7.4,2.7-15.4,2.9-23.2C667.4,363.3,667.9,358.5,671.8,354.6z"/>
	<path class="st1" d="M530.3,366.6c3.7-2.5,7.9-4.5,11-7.6c15.4-15.2,33.7-24.7,54.8-28.9c0.6-0.1,1.1-0.7,1.6-1.1   c5.9-0.7,11.9-0.9,17.6-2.3c12.9-3,25.3-3.3,37.2,3.5c-26.1-1.2-50.7,5-74.8,14.4c-20.1,7.8-37.4,19.6-52.1,35   c-5.5,5.7-8.6,13.6-12.9,20.5c-1.2,2-2.7,3.9-4,5.9c-1.2-1.7-3.8-4.1-3.4-5.1c3.1-7.1,3.7-15.6,11.2-20.4c1.9-1.2,2.1-4.9,3.9-6.7   C523.4,371,527,368.9,530.3,366.6z"/>
	<path class="st1" d="M483.9,518.4c-1.6,2-3.1,4.1-4.9,5.8c-4.2,3.8-8.7,7.4-13.1,11.1c-7.6,6.4-15,12.9-22.8,19   c-1.5,1.2-4.3,0.6-6.5,0.8c-5.9-4.1-3-9.7-2.5-14.9c3-1.8,6.1-3.6,9.1-5.4c6.1-4.6,12.3-9,18.2-13.7c7.7-6.2,15.5-12.3,22.8-19   c3.8-3.5,6.5-8.3,10.1-12.1c1.8-1.9,4.6-2.9,6.9-4.4c-0.3,3,0.3,6.6-1.1,8.9C495.1,502.8,489.4,510.5,483.9,518.4z"/>
	<path class="st0" d="M973.6,618.4c4.4,16.6,1.7,29.1-13.9,32.9c-7.8,1.9-14.6-1.9-20.7-6.7c-12.1-9.4-15.2-24.6-7.7-37.6   c6.2-10.8,23.3-13,29.7,1.6c-7.3,6-15.3,12.5-23.7,19.3c7.8,7.1,13.6,11.5,22.7,9.2C969.4,634.7,971.4,627.1,973.6,618.4z    M936.8,626.4c3.5-3.9,6.6-7.1,9.3-10.5c1.1-1.4,2.3-4,1.7-5c-1-1.6-3.5-3.3-5.2-3.2c-2.7,0.2-6.1,1.2-7.8,3.2   C930.8,615.3,932.5,620.1,936.8,626.4z"/>
	<path class="st0" d="M387.2,829.8c-9.2,4.6-24.4,1-29.5-6.4c-4.2-6.1-1.5-20.6,3.6-27.7c8.1-11.4,19-13.7,31.8-12.1   c4.8,0.6,13.6,10.8,13.9,16.5c0.1,1.8,0.5,3.8-0.2,5.3c-1.7,3.5-3.2,8.1-6.2,9.6c-1.9,0.9-6.5-2.6-9.2-4.9   c-3.3-2.8-5.7-6.6-8.7-9.7c-5.8-6-6.5-5.7-11,0.6c-6,8.4-1.4,23.1,8.4,26.3C382.3,828,384.5,828.8,387.2,829.8z M380.5,792.7   c3.3,2.8,6.3,5.9,9.8,8.2c2.1,1.3,5.1,1.3,7.6,1.9c0.4-3,1.9-6.5,0.9-9C396.4,787.5,388,786.9,380.5,792.7z"/>
	<path class="st0" d="M458.8,861.1c-1.1,2.1-2,3.8-3.3,6.3c2.8,2.4,5.6,5,8.5,7.5c2.5,2.1,4.6,6.6,8.5,2c2.8-3.3,1.8-9.2-2-11.8   c-1.6-1.1-3.3-2-4.8-3.1c-0.4-0.3-0.5-1-0.7-1.6c6.3-1.5,14.2,4.5,16.8,12.6c2.1,6.5-1.8,15.1-8.6,18.2   c-6.6-7.5-13.3-15.1-19.9-22.6c-14.4,13.9-12.7,26.2,3.3,35.8c-5.7,4.3-13.6,2.9-20.7-3.7c-8.1-7.6-8.3-16.7-0.6-27.9   C443.5,860.5,450.2,857.1,458.8,861.1z"/>
	<path class="st0" d="M778,833.1c-0.6,1-1.9,3.6-3.8,5.7c-5.4,6-6.7,5.5-11.2-1.2c-2.3-3.6-6.1-6.2-9.1-9.3   c-7.4-7.7-14.8-15.5-22.2-23.2c-2.1-2.2-4.1-4.5-6.5-6.2c-1.4-1-3.4-1.3-5.2-1.5c-1.7-0.2-3.5-0.1-5.9-0.1   c3.6-6.6,6.4-11.7,9.6-17.5C741.9,797.7,759.6,815,778,833.1z"/>
	<path class="st0" d="M326.2,723.4c-8.9,4.3-11.3,2.5-12.4-6.5c-0.5-3.9-2.7-10.2-5.1-10.8c-4.2-0.9-10.2,0.6-13.6,3.3   c-11.1,9-12.5,15-7.8,27c0.9,2.3,3.1,4.1,4.9,5.9c1.8,1.8,3.9,3.3,6.1,5.2c-6.3,3-15.8,0.2-21-5.4c-7.4-7.8-8.5-17.5-4.3-26.2   c4.3-8.7,11.9-15.3,22.8-15.9c11.4-0.6,21.3,2.1,27.4,12.5C325,715.6,325.2,719.5,326.2,723.4z"/>
	<path class="st0" d="M584.3,443.5c5.4-7.8,10-16.3,16.3-23.3c13.4-14.8,27.4-29.1,41.8-42.9c3.2-3,9-3.3,13.6-4.9   c0.3,0.7,0.6,1.3,0.9,2c-3.7,3.4-7.3,6.8-11,10.2c-9.1,8.4-18.9,16.1-27,25.4c-8.5,9.8-16,20.7-22.7,31.9   c-5.2,8.6-8.4,18.4-13.2,29.1c-1-2.8-2-5.3-2.7-7.8c-0.6-2-1-4.1-1.4-6.1C580.6,452.6,582.5,448,584.3,443.5z"/>
	<path class="st0" d="M750,858.6c-5,6.8-10.1,13.6-14.5,19.5c-9.6-10.3-17.7-19.6-26.5-28.1c-1.5-1.5-5.6-0.2-9.7-0.2   c4.6-5.5,3.8-14.1,12.3-16.8c1.4-0.4,2.2-2.9,3-4.6c1.1-2.1,1.3-5.2,3-6.4c2-1.4,5.4-2.2,7.7-1.6c1.7,0.4,3.8,3.5,3.8,5.3   c-0.1,1.7-2.5,3.9-4.4,4.9c-9,4.6-9.5,6.4-2.2,13.7c5.2,5.2,10.8,10,16.2,15c3.4,3.2,6.5,3.1,9.9-0.1c0.6-0.5,2.2,0.1,3.3,0.2   C751.2,859.1,750.6,858.8,750,858.6z"/>
	<path class="st1" d="M644.6,308.6c-9,1.7-18.1,2.8-26.9,5.3c-15.1,4.2-30.3,8.5-44.8,14.4c-9.2,3.7-17.7,9.9-25.6,16   c-6.3,4.8-11.3,11.3-16.9,17.1c-0.9-1.4-2.8-3.4-2.4-4.2c2-4.4,3.8-9.2,7-12.6c8.6-9.2,19-16.3,30.9-20.6   c12.7-4.7,25.9-8,38.5-13.1c13.4-5.4,26.7-6.3,40.5-3.1c0,0-0.1-0.1-0.1-0.1C644.6,307.9,644.6,308.3,644.6,308.6z"/>
	<path class="st0" d="M554.3,559c0-1.5,0.1-3.1,0.1-4.6c-1.7-4.1-3.1-8.4-5.4-12.1c-1.8-2.9-4.5-6.1-7.5-7.4   c-10.1-4.3-18.7-10.7-26.2-18.5c-0.8-0.8-0.9-2.2-1.7-4.2c4.1-0.2,7.6-0.4,11-0.5c7.9,2.2,15.8,4.5,23.7,6.7   c3.1,6.4,6.1,12.7,9.2,19c1,1.9,2.3,3.6,3.5,5.4c0.7-0.2,1.3-0.4,2-0.7c-1.1,5-2.4,10-3.4,15.1c-0.2,1.3,0.5,2.7,0.6,4   c0.3,2.3,0.9,4.7,0.6,6.9c-0.1,1.1-2,2-3,3c-1.1-1.2-2.8-2.2-3.1-3.6C554.2,564.8,554.4,561.9,554.3,559z"/>
	<path class="st1" d="M584.3,443.5c-1.8,4.6-3.7,9.1-5.5,13.7c-4.8-3.4-6.2-10-2.3-18.3c6.4-13.7,14.3-26.7,25-37.7   c8.2-8.3,18-15.5,24.2-25c5.5-8.4,12.7-7.4,19.4-9.9c0.4,0.6,0.9,1.2,1.3,1.8c-4.6,4.3-8.9,8.8-13.7,12.8   c-14.9,12.4-27.5,26.8-38.8,42.4c-3.8,5.3-6.9,11.2-10.2,16.9C583.2,440.9,584.1,442.3,584.3,443.5z"/>
	<path class="st0" d="M390,852.5c13.7-10.1,29.9-28.3,29.3-33c6.7,0.5,13.9-0.7,14.9,9.1c0.1,0.8,1.9,1.6,3,2   c1.6,0.6,3.7,0.4,4.9,1.5c2.5,2.2,4.7,4.7,6.4,7.5c0.3,0.6-2.9,4.5-3.5,4.3c-3.1-1.2-6.9-2.6-8.6-5.2c-3.3-4.8-7.2-5.7-11.7-1   c-7.1,7.4-14,15-21.2,22.2c-0.9,0.9-3.9,1-5.1,0.2C395.3,857.9,392.8,855.1,390,852.5z"/>
	<path class="st0" d="M1007.8,605.6c-4.5,4.5-8.6,8.6-11.7,11.8c-5.4-5.8-9.5-10.1-13.6-14.5c-3.2-3.4-6-7.3-9.6-10.2   c-3-2.4-7-3.7-11.4-5.9c6.1-1.9-0.7-15.6,11.9-12.3c0.7-3.4,0.9-7,2.2-10.2c2.3-5.7,7.8-6.8,11.4-2.7c3.5,4,2.5,7.6-2.6,9.5   c-9.4,3.4-9.7,4.4-3.2,12.2c3.7,4.4,7.6,8.8,11.9,12.6C997,599.2,1001.7,601.6,1007.8,605.6z"/>
	<path class="st1" d="M502.4,452.4c-3.6,0.1-7.1,0.3-10.7,0.3c-13.7-0.2-25.9,4.1-36.3,12.9c-3.4,2.9-5.7,7-8.7,10.4   c-1.5,1.7-3.3,3.2-5,4.8c-4.3-8.6,0.4-15.2,5.7-20.9c8.8-9.4,19.2-17.4,32.4-18.5c9.9-0.9,20.7-1.9,30.1,5.3   C506.9,449,504.7,450.7,502.4,452.4z"/>
	<path class="st1" d="M580.1,481.6c-3.6-0.3-7.7,0.5-10.6-1.1c-11.3-6.5-22.5-12.4-35.3-6.5c-1.8,1.4-3.4,3-5.3,4.2   c-2.2,1.4-4.5,2.6-6.8,3.9c-2.2-2.2-4.4-4.4-6.6-6.6c3.6-2.7-2.1-13.2,8.6-10.3c1.2,0.3,3.4-3.2,6-5.9c7,0.9,16.4,0,23.9,3.4   C563.7,467,575.9,469.3,580.1,481.6z"/>
	<path class="st0" d="M492.6,890c6,3,12,6.1,19.9,10.1c-9,8.3-16.8,15.5-24.7,22.6c-1.5,1.3-3.2,2.4-4.8,3.5   c-5.5,3.9-5.4,8.9-2.5,14.2c-5.9-6.2-11.8-12.4-16.1-16.9c5,4.6,7.7-2.4,11.5-6.1c4.3-4.2,8.4-8.7,12.9-12.8   c4.1-3.7,7.4-7.2,2.1-12.9C491.4,891.2,492,890.6,492.6,890z"/>
	<path class="st1" d="M559.1,725.4c-9,9.5-18,19-27,28.5c-1.1,1.2-1.9,2.7-2.8,4c-1.3,1.9-2.3,4.3-4.1,5.8   c-4.2,3.4-8.8,6.2-13.2,9.4c-5.4,4.1-11.4,3.4-17.9-2.1c6.3-4.2,13-8,19-12.6c12.2-9.3,24.1-19.2,36.3-28.6   C552.1,727.7,555.8,726.9,559.1,725.4z"/>
	<path class="st0" d="M448.7,670.3c-6.8-4.5-13.6-8.9-20.3-13.5c-1.1-0.8-2-2.3-2.5-3.7c-3.5-8.3-6.9-16.6-9.4-26.1   c1.7,2,4.1,3.7,5,6c3.3,8.8,10.7,14.1,17.3,20c4.9,4.4,11.1,6.1,18,2.1c2.2,5.6,7.9,10.4,0.2,15.5   C454.1,670.5,451.4,670.4,448.7,670.3z"/>
	<path class="st1" d="M548.3,518.4c-7.9-2.2-15.8-4.5-23.7-6.7c-3.5-2.9-7.1-5.6-10.4-8.6c-1.2-1.1-1.7-3-2.5-4.5   c1.8-0.9,3.6-2.5,5.5-2.6c2.5-0.1,5.1,0.9,7.7,1.4c8.5,4.5,18.8,5.9,24.7,14.8C549.2,514.2,548.8,516.3,548.3,518.4z"/>
	<path class="st1" d="M730.6,384.1c3.4,8.3,1.1,16-1.7,23.9c-2.2,6.3-3.4,12.9-5.2,19.3c-0.6,2.1-1.5,4.2-2.3,6.2   c-0.8-0.1-1.7-0.2-2.5-0.3c0-5.2-1.3-10.8,0.3-15.5c3.3-10.2,1.8-20.4,1.9-30.7c0-2.7,2.7-5.5,4.1-8.2   C727,380.6,728.8,382.4,730.6,384.1z"/>
	<path class="st1" d="M402.5,546.4c-0.7-0.3-2.1-0.7-2.1-0.8c1.3-6,3.5-12,3.9-18.1c0.6-10.7,6.1-19.4,11.1-28.1   c3.6-6.2,9.8-11,14.9-16.4c0.8,0.6,1.6,1.1,2.3,1.7c-1.8,3.4-3.4,6.9-5.5,10.2c-3.9,6.1-8.1,12-12.1,18c-0.2,0.4,0.1,1.2,0.2,1.8   c-1.4,2.9-3.1,5.8-4.3,8.9C408,531.1,405.3,538.8,402.5,546.4z"/>
	<path class="st0" d="M402.5,546.4c2.8-7.6,5.5-15.3,8.4-22.9c1.2-3,2.8-5.9,4.3-8.9c5.7-6,11.4-12.1,17.1-18.1c0.7,0.5,1.4,1,2,1.5   c-6.4,9.9-13.6,19.4-18.9,29.8c-5.5,10.8-9.1,22.5-13.6,33.8c-0.5,0.5-0.9,1-1.4,1.6c-0.2-2.5-0.7-5-0.4-7.5   C400.5,552.6,401.6,549.5,402.5,546.4z"/>
	<path class="st1" d="M465,741.5c0-7.1-0.1-14.2-0.1-21.2c7.5,11.5,19.7,17.2,30.3,25.3C484.4,749,475.3,740.8,465,741.5z"/>
	<path class="st1" d="M573.4,514.2c1.4,2.4,4,4.7,4.1,7.2c0.4,10,0,20-0.2,30c0,1.2-1,2.4-1.5,3.6c-8.7-4.2-8.6-4.3-6.3-15.9   c1.2-5.9,1.5-12,2.4-17.9C572.2,518.7,572.9,516.4,573.4,514.2z"/>
	<path class="st1" d="M448.7,670.3c2.7,0.1,5.4,0.2,8.1,0.3c-0.1,2.3-0.2,4.6-0.3,6.9c-1.3,1.6-2.9,3.1-3.8,4.9   c-2,4.4-3.6,9-5.4,13.6c-1-2.1-3.1-4.3-2.8-6.2C445.5,683.2,447.2,676.8,448.7,670.3z"/>
	<path class="st1" d="M722.8,538.7c-4.1-8.5,2.6-12.8,7.1-17.9c0.2-0.4,0.5-0.7,0.9-0.9c0,0-0.2,0.1-0.2,0.1   c3.1-3.3,6.1-6.6,9.2-9.9c0.6,0.5,1.3,0.9,1.9,1.4C735.9,520.9,730.5,530.5,722.8,538.7z"/>
	<path class="st1" d="M425.7,625.1c10.7-1.3,15.7,3.2,16.2,14.6C434.3,639.9,426.4,632.8,425.7,625.1z"/>
	<path class="st0" d="M443.2,534.9c-3,1.8-6.1,3.6-9.1,5.4c0-2-0.9-4.9,0.1-5.9c6.1-6.1,10.1-13.2,12.3-21.5   c0.4-1.5,1.8-2.7,2.8-4.1c0.6,0.2,1.2,0.5,1.8,0.7c-1.3,4.2-2.6,8.4-3.9,12.6C445.8,526.4,444.5,530.6,443.2,534.9z"/>
	<path class="st1" d="M724.3,471.4c1.8-4.3,3.6-8.6,5.4-12.9c2.9-4.4,5.8-8.8,9.1-13.9C740.6,453.2,732.5,467.4,724.3,471.4z"/>
	<path class="st0" d="M523.5,885.6c-5.5,0.8-7.2-2.8-6.3-6.3c0.7-2.7,3.7-6.1,6.2-6.7c4-0.9,6.4,2.6,6.4,6.5   C529.8,883.2,528.2,886.5,523.5,885.6z"/>
	<path class="st0" d="M281.9,642c0.4,5.4-3.1,7.5-6.5,6.8c-2.7-0.6-4.7-4-7-6.2c2.3-2.3,4.4-6.2,6.8-6.5   C278.1,635.8,283.3,636.8,281.9,642z"/>
	<path class="st0" d="M283.1,658.2c0.3-6.5,3.3-8.7,7.1-7.6c2.4,0.7,5.5,3.7,5.8,6c0.5,4-2.6,7.6-6.7,6.9   C286.6,663,284.5,659.5,283.1,658.2z"/>
	<path class="st1" d="M722.5,357.5c-1.8-1.5-3.5-3-5.3-4.5c-0.5-6.7-1-13.4-1.6-21.9c2.4,3.7,5.1,6.3,5.7,9.2   C722.5,345.9,722.2,351.7,722.5,357.5z"/>
	<path class="st1" d="M492.9,542.8c-2.7-0.9-5.4-1.8-8.1-2.7c3.4-2.8,6.6-5.7,10.1-8.3c1.2-0.9,3-1,4.5-1.4c0,1.8,0.7,4-0.1,5.2   C497.6,538.3,495.1,540.4,492.9,542.8z"/>
	<path class="st1" d="M441.7,639.5c5.6-0.2,11.8-3.7,16.1,2.9c-2.1,1.3-4,3.3-6.3,3.7C446.3,647.3,443.3,644.3,441.7,639.5z"/>
	<path class="st1" d="M566.6,491.6c6,0.3,7.9,4.8,10,9.9c-2,0.8-3.7,1.5-5.5,2.2C569.6,499.6,568.1,495.6,566.6,491.6z"/>
	<path class="st0" d="M399.1,592.2c0.2-7.6,6.3-17.6,13.9-21.1C408,578.8,403.5,585.5,399.1,592.2z"/>
	<path class="st1" d="M732.3,510c-0.2-1.6-0.4-3.2-0.6-4.7c3-3.4,6.1-6.8,9.1-10.2c0.7,0.6,1.4,1.2,2.1,1.7   C741.4,502.7,739,507.8,732.3,510z"/>
	<path class="st1" d="M443,512.3c-3,4.9-6,9.7-9.3,15.2c-3.6-6.5-2.1-9.3,7.6-16.2C441.9,511.6,442.5,511.9,443,512.3z"/>
	<path class="st1" d="M559.8,493c-3.8-2.4-7.7-4.8-12.5-7.8c6.7-4,9.2-0.7,11.7,2.5C559.3,489.5,559.5,491.3,559.8,493z"/>
	<path class="st1" d="M400.4,563.2c0.5-0.5,0.9-1.1,1.4-1.6c3-2.2,6.1-4.4,9.2-6.7l-0.1-0.1c-3.4,5.6-6.9,11.2-10.4,16.9   C400.4,569,400.4,566.1,400.4,563.2z"/>
	<path class="st1" d="M652.1,307.6c-1.5,0.4-3,0.9-4.6,1.3c-1-0.5-1.9-0.9-2.9-1.4c0,0,0.1,0.1,0.1,0.1   C645.8,304.3,645.8,304.3,652.1,307.6z"/>
	<path class="st1" d="M447.3,699.1c0,1.5-0.1,3.1-0.1,4.6C447.2,702.1,447.3,700.6,447.3,699.1z"/>
	<path class="st1" d="M411,555c0.1-0.6,0.2-1.2,0.3-1.7c0.2,0.1,0.4,0.2,0.6,0.3C411.5,554,411.2,554.5,411,555   C410.9,554.9,411,555,411,555z"/>
	<path class="st1" d="M640.9,671.9c-14.1,14.2-29.5,27.1-43.5,41.4c-14.8,15.1-28.8,31.1-43.7,46.1c-5,5-11.9,8-17.9,11.9l0.1,0.1   c2.3-3,4.2-6.7,7.1-8.9c13.3-10.2,22.1-24.5,33.5-36.4c2.5-2.6,6.6-3.7,9.6-6c3.4-2.5,6.8-5.2,9.5-8.5   c13.5-16.8,26.9-33.6,40.1-50.7c4.8-6.2,8.5-13.1,13.2-19.4c1.4-1.8,4.4-2.3,6.7-3.4c-0.2,3,0.4,6.5-0.9,9   C650.5,655.6,645.6,663.7,640.9,671.9z"/>
	<path class="st1" d="M622.2,657.8c1.2-0.2,2.4-0.3,3.6-0.5c-5,6.8-10,13.6-15,20.5c-0.8-0.5-1.5-1.1-2.3-1.6   C610.7,668.6,616.7,663.4,622.2,657.8z"/>
	<path class="st1" d="M663.4,331.9c-0.4-2.2-0.8-4.3-1.1-6.5c7.6,1.2,12.3,7.2,12.9,18.5C670.6,339.2,667,335.6,663.4,331.9z"/>
</g>
</svg>