<svg xmlns="http://www.w3.org/2000/svg" viewBox="0 0 180 36" fill="none">
  <rect width="32" height="32" x="0" y="2" rx="9" fill="#059669"/>
  <path d="M16 8c-1.5 3.5-5.5 5.5-5.5 9.5 0 3.3 2.5 5.5 5.5 5.5s5.5-2.2 5.5-5.5c0-1.2-.4-2.3-1-3.2C19.5 16 18 17.5 16 17.5v-9.5z" fill="white" opacity="0.9"/>
  <path d="M16 17.5c-2 0-3.5-1.5-4.2-3.5-.5 1-.8 2.1-.8 3.2 0 2.8 2.2 5 5 5 .5 0 1-.1 1.4-.2-1-.9-1.4-2.2-1.4-4.5z" fill="white" opacity="0.6"/>
  <text x="42" y="25" font-family="Inter,system-ui,sans-serif" font-size="17" font-weight="700" letter-spacing="-0.3" fill="#0F172A">Sustainista</text>
</svg>
